<svg xmlns="http://www.w3.org/2000/svg" viewBox="0 0 605.634 605.634" width="605.634" height="605.634">
  <line x1="302.817" y1="4.617" x2="302.817" y2="39.017" stroke="#FFFFFF" stroke-width="6.0" stroke-linecap="square"/>
  <line x1="313.287" y1="3.000" x2="311.961" y2="40.977" stroke="#FFFFFF" stroke-width="2.4" stroke-linecap="square"/>
  <line x1="323.744" y1="3.548" x2="321.093" y2="41.455" stroke="#FFFFFF" stroke-width="2.4" stroke-linecap="square"/>
  <line x1="334.176" y1="4.461" x2="330.204" y2="42.253" stroke="#FFFFFF" stroke-width="2.4" stroke-linecap="square"/>
  <line x1="344.569" y1="5.737" x2="339.281" y2="43.367" stroke="#FFFFFF" stroke-width="2.4" stroke-linecap="square"/>
  <line x1="354.912" y1="7.375" x2="348.313" y2="44.798" stroke="#FFFFFF" stroke-width="2.4" stroke-linecap="square"/>
  <line x1="365.191" y1="9.373" x2="357.290" y2="46.543" stroke="#FFFFFF" stroke-width="2.4" stroke-linecap="square"/>
  <line x1="375.394" y1="11.729" x2="366.201" y2="48.600" stroke="#FFFFFF" stroke-width="2.4" stroke-linecap="square"/>
  <line x1="385.508" y1="14.439" x2="375.034" y2="50.967" stroke="#FFFFFF" stroke-width="2.4" stroke-linecap="square"/>
  <line x1="395.522" y1="17.500" x2="383.780" y2="53.640" stroke="#FFFFFF" stroke-width="2.4" stroke-linecap="square"/>
  <line x1="405.423" y1="20.909" x2="392.427" y2="56.618" stroke="#FFFFFF" stroke-width="2.4" stroke-linecap="square"/>
  <line x1="415.199" y1="24.662" x2="400.964" y2="59.895" stroke="#FFFFFF" stroke-width="2.4" stroke-linecap="square"/>
  <line x1="424.838" y1="28.754" x2="409.382" y2="63.468" stroke="#FFFFFF" stroke-width="2.4" stroke-linecap="square"/>
  <line x1="434.329" y1="33.179" x2="417.670" y2="67.333" stroke="#FFFFFF" stroke-width="2.4" stroke-linecap="square"/>
  <line x1="443.659" y1="37.933" x2="425.819" y2="71.485" stroke="#FFFFFF" stroke-width="2.4" stroke-linecap="square"/>
  <line x1="451.917" y1="44.568" x2="434.717" y2="74.360" stroke="#FFFFFF" stroke-width="6.0" stroke-linecap="square"/>
  <line x1="461.793" y1="48.403" x2="441.656" y2="80.629" stroke="#FFFFFF" stroke-width="2.4" stroke-linecap="square"/>
  <line x1="470.575" y1="54.106" x2="449.326" y2="85.609" stroke="#FFFFFF" stroke-width="2.4" stroke-linecap="square"/>
  <line x1="479.153" y1="60.112" x2="456.817" y2="90.855" stroke="#FFFFFF" stroke-width="2.4" stroke-linecap="square"/>
  <line x1="487.516" y1="66.414" x2="464.121" y2="96.358" stroke="#FFFFFF" stroke-width="2.4" stroke-linecap="square"/>
  <line x1="495.654" y1="73.004" x2="471.228" y2="102.114" stroke="#FFFFFF" stroke-width="2.4" stroke-linecap="square"/>
  <line x1="503.556" y1="79.874" x2="478.129" y2="108.113" stroke="#FFFFFF" stroke-width="2.4" stroke-linecap="square"/>
  <line x1="511.215" y1="87.015" x2="484.818" y2="114.350" stroke="#FFFFFF" stroke-width="2.4" stroke-linecap="square"/>
  <line x1="518.619" y1="94.420" x2="491.284" y2="120.817" stroke="#FFFFFF" stroke-width="2.4" stroke-linecap="square"/>
  <line x1="525.761" y1="102.078" x2="497.521" y2="127.505" stroke="#FFFFFF" stroke-width="2.4" stroke-linecap="square"/>
  <line x1="532.631" y1="109.981" x2="503.521" y2="134.407" stroke="#FFFFFF" stroke-width="2.4" stroke-linecap="square"/>
  <line x1="539.220" y1="118.119" x2="509.276" y2="141.514" stroke="#FFFFFF" stroke-width="2.4" stroke-linecap="square"/>
  <line x1="545.522" y1="126.482" x2="514.780" y2="148.818" stroke="#FFFFFF" stroke-width="2.4" stroke-linecap="square"/>
  <line x1="551.529" y1="135.059" x2="520.025" y2="156.309" stroke="#FFFFFF" stroke-width="2.4" stroke-linecap="square"/>
  <line x1="557.232" y1="143.841" x2="525.006" y2="163.978" stroke="#FFFFFF" stroke-width="2.4" stroke-linecap="square"/>
  <line x1="561.066" y1="153.717" x2="531.275" y2="170.917" stroke="#FFFFFF" stroke-width="6.0" stroke-linecap="square"/>
  <line x1="567.702" y1="161.976" x2="534.150" y2="179.816" stroke="#FFFFFF" stroke-width="2.4" stroke-linecap="square"/>
  <line x1="572.455" y1="171.306" x2="538.301" y2="187.964" stroke="#FFFFFF" stroke-width="2.4" stroke-linecap="square"/>
  <line x1="576.881" y1="180.796" x2="542.166" y2="196.252" stroke="#FFFFFF" stroke-width="2.4" stroke-linecap="square"/>
  <line x1="580.972" y1="190.435" x2="545.739" y2="204.670" stroke="#FFFFFF" stroke-width="2.4" stroke-linecap="square"/>
  <line x1="584.725" y1="200.211" x2="549.017" y2="213.208" stroke="#FFFFFF" stroke-width="2.4" stroke-linecap="square"/>
  <line x1="588.134" y1="210.112" x2="551.994" y2="221.855" stroke="#FFFFFF" stroke-width="2.4" stroke-linecap="square"/>
  <line x1="591.196" y1="220.126" x2="554.668" y2="230.600" stroke="#FFFFFF" stroke-width="2.4" stroke-linecap="square"/>
  <line x1="593.906" y1="230.241" x2="557.035" y2="239.434" stroke="#FFFFFF" stroke-width="2.4" stroke-linecap="square"/>
  <line x1="596.262" y1="240.444" x2="559.092" y2="248.344" stroke="#FFFFFF" stroke-width="2.4" stroke-linecap="square"/>
  <line x1="598.260" y1="250.723" x2="560.837" y2="257.321" stroke="#FFFFFF" stroke-width="2.4" stroke-linecap="square"/>
  <line x1="599.898" y1="261.065" x2="562.267" y2="266.354" stroke="#FFFFFF" stroke-width="2.4" stroke-linecap="square"/>
  <line x1="601.174" y1="271.459" x2="563.382" y2="275.431" stroke="#FFFFFF" stroke-width="2.4" stroke-linecap="square"/>
  <line x1="602.086" y1="281.890" x2="564.179" y2="284.541" stroke="#FFFFFF" stroke-width="2.4" stroke-linecap="square"/>
  <line x1="602.634" y1="292.347" x2="564.658" y2="293.674" stroke="#FFFFFF" stroke-width="2.4" stroke-linecap="square"/>
  <line x1="601.017" y1="302.817" x2="566.617" y2="302.817" stroke="#FFFFFF" stroke-width="6.0" stroke-linecap="square"/>
  <line x1="602.634" y1="313.287" x2="564.658" y2="311.961" stroke="#FFFFFF" stroke-width="2.4" stroke-linecap="square"/>
  <line x1="602.086" y1="323.744" x2="564.179" y2="321.093" stroke="#FFFFFF" stroke-width="2.4" stroke-linecap="square"/>
  <line x1="601.174" y1="334.176" x2="563.382" y2="330.204" stroke="#FFFFFF" stroke-width="2.4" stroke-linecap="square"/>
  <line x1="599.898" y1="344.569" x2="562.267" y2="339.281" stroke="#FFFFFF" stroke-width="2.4" stroke-linecap="square"/>
  <line x1="598.260" y1="354.912" x2="560.837" y2="348.313" stroke="#FFFFFF" stroke-width="2.4" stroke-linecap="square"/>
  <line x1="596.262" y1="365.191" x2="559.092" y2="357.290" stroke="#FFFFFF" stroke-width="2.4" stroke-linecap="square"/>
  <line x1="593.906" y1="375.394" x2="557.035" y2="366.201" stroke="#FFFFFF" stroke-width="2.4" stroke-linecap="square"/>
  <line x1="591.196" y1="385.508" x2="554.668" y2="375.034" stroke="#FFFFFF" stroke-width="2.4" stroke-linecap="square"/>
  <line x1="588.134" y1="395.522" x2="551.994" y2="383.780" stroke="#FFFFFF" stroke-width="2.4" stroke-linecap="square"/>
  <line x1="584.725" y1="405.423" x2="549.017" y2="392.427" stroke="#FFFFFF" stroke-width="2.4" stroke-linecap="square"/>
  <line x1="580.972" y1="415.199" x2="545.739" y2="400.964" stroke="#FFFFFF" stroke-width="2.4" stroke-linecap="square"/>
  <line x1="576.881" y1="424.838" x2="542.166" y2="409.382" stroke="#FFFFFF" stroke-width="2.4" stroke-linecap="square"/>
  <line x1="572.455" y1="434.329" x2="538.301" y2="417.670" stroke="#FFFFFF" stroke-width="2.4" stroke-linecap="square"/>
  <line x1="567.702" y1="443.659" x2="534.150" y2="425.819" stroke="#FFFFFF" stroke-width="2.4" stroke-linecap="square"/>
  <line x1="561.066" y1="451.917" x2="531.275" y2="434.717" stroke="#FFFFFF" stroke-width="6.0" stroke-linecap="square"/>
  <line x1="557.232" y1="461.793" x2="525.006" y2="441.656" stroke="#FFFFFF" stroke-width="2.4" stroke-linecap="square"/>
  <line x1="551.529" y1="470.575" x2="520.025" y2="449.326" stroke="#FFFFFF" stroke-width="2.4" stroke-linecap="square"/>
  <line x1="545.522" y1="479.153" x2="514.780" y2="456.817" stroke="#FFFFFF" stroke-width="2.4" stroke-linecap="square"/>
  <line x1="539.220" y1="487.516" x2="509.276" y2="464.121" stroke="#FFFFFF" stroke-width="2.4" stroke-linecap="square"/>
  <line x1="532.631" y1="495.654" x2="503.521" y2="471.228" stroke="#FFFFFF" stroke-width="2.4" stroke-linecap="square"/>
  <line x1="525.761" y1="503.556" x2="497.521" y2="478.129" stroke="#FFFFFF" stroke-width="2.4" stroke-linecap="square"/>
  <line x1="518.619" y1="511.215" x2="491.284" y2="484.818" stroke="#FFFFFF" stroke-width="2.4" stroke-linecap="square"/>
  <line x1="511.215" y1="518.619" x2="484.818" y2="491.284" stroke="#FFFFFF" stroke-width="2.4" stroke-linecap="square"/>
  <line x1="503.556" y1="525.761" x2="478.129" y2="497.521" stroke="#FFFFFF" stroke-width="2.4" stroke-linecap="square"/>
  <line x1="495.654" y1="532.631" x2="471.228" y2="503.521" stroke="#FFFFFF" stroke-width="2.4" stroke-linecap="square"/>
  <line x1="487.516" y1="539.220" x2="464.121" y2="509.276" stroke="#FFFFFF" stroke-width="2.4" stroke-linecap="square"/>
  <line x1="479.153" y1="545.522" x2="456.817" y2="514.780" stroke="#FFFFFF" stroke-width="2.4" stroke-linecap="square"/>
  <line x1="470.575" y1="551.529" x2="449.326" y2="520.025" stroke="#FFFFFF" stroke-width="2.4" stroke-linecap="square"/>
  <line x1="461.793" y1="557.232" x2="441.656" y2="525.006" stroke="#FFFFFF" stroke-width="2.4" stroke-linecap="square"/>
  <line x1="451.917" y1="561.066" x2="434.717" y2="531.275" stroke="#FFFFFF" stroke-width="6.0" stroke-linecap="square"/>
  <line x1="443.659" y1="567.702" x2="425.819" y2="534.150" stroke="#FFFFFF" stroke-width="2.4" stroke-linecap="square"/>
  <line x1="434.329" y1="572.455" x2="417.670" y2="538.301" stroke="#FFFFFF" stroke-width="2.4" stroke-linecap="square"/>
  <line x1="424.838" y1="576.881" x2="409.382" y2="542.166" stroke="#FFFFFF" stroke-width="2.4" stroke-linecap="square"/>
  <line x1="415.199" y1="580.972" x2="400.964" y2="545.739" stroke="#FFFFFF" stroke-width="2.4" stroke-linecap="square"/>
  <line x1="405.423" y1="584.725" x2="392.427" y2="549.017" stroke="#FFFFFF" stroke-width="2.4" stroke-linecap="square"/>
  <line x1="395.522" y1="588.134" x2="383.780" y2="551.994" stroke="#FFFFFF" stroke-width="2.4" stroke-linecap="square"/>
  <line x1="385.508" y1="591.196" x2="375.034" y2="554.668" stroke="#FFFFFF" stroke-width="2.4" stroke-linecap="square"/>
  <line x1="375.394" y1="593.906" x2="366.201" y2="557.035" stroke="#FFFFFF" stroke-width="2.4" stroke-linecap="square"/>
  <line x1="365.191" y1="596.262" x2="357.290" y2="559.092" stroke="#FFFFFF" stroke-width="2.4" stroke-linecap="square"/>
  <line x1="354.912" y1="598.260" x2="348.313" y2="560.837" stroke="#FFFFFF" stroke-width="2.4" stroke-linecap="square"/>
  <line x1="344.569" y1="599.898" x2="339.281" y2="562.267" stroke="#FFFFFF" stroke-width="2.4" stroke-linecap="square"/>
  <line x1="334.176" y1="601.174" x2="330.204" y2="563.382" stroke="#FFFFFF" stroke-width="2.4" stroke-linecap="square"/>
  <line x1="323.744" y1="602.086" x2="321.093" y2="564.179" stroke="#FFFFFF" stroke-width="2.4" stroke-linecap="square"/>
  <line x1="313.287" y1="602.634" x2="311.961" y2="564.658" stroke="#FFFFFF" stroke-width="2.4" stroke-linecap="square"/>
  <line x1="302.817" y1="601.017" x2="302.817" y2="566.617" stroke="#FFFFFF" stroke-width="6.0" stroke-linecap="square"/>
  <line x1="292.347" y1="602.634" x2="293.674" y2="564.658" stroke="#FFFFFF" stroke-width="2.4" stroke-linecap="square"/>
  <line x1="281.890" y1="602.086" x2="284.541" y2="564.179" stroke="#FFFFFF" stroke-width="2.4" stroke-linecap="square"/>
  <line x1="271.459" y1="601.174" x2="275.431" y2="563.382" stroke="#FFFFFF" stroke-width="2.4" stroke-linecap="square"/>
  <line x1="261.065" y1="599.898" x2="266.354" y2="562.267" stroke="#FFFFFF" stroke-width="2.4" stroke-linecap="square"/>
  <line x1="250.723" y1="598.260" x2="257.321" y2="560.837" stroke="#FFFFFF" stroke-width="2.4" stroke-linecap="square"/>
  <line x1="240.444" y1="596.262" x2="248.344" y2="559.092" stroke="#FFFFFF" stroke-width="2.4" stroke-linecap="square"/>
  <line x1="230.241" y1="593.906" x2="239.434" y2="557.035" stroke="#FFFFFF" stroke-width="2.4" stroke-linecap="square"/>
  <line x1="220.126" y1="591.196" x2="230.600" y2="554.668" stroke="#FFFFFF" stroke-width="2.4" stroke-linecap="square"/>
  <line x1="210.112" y1="588.134" x2="221.855" y2="551.994" stroke="#FFFFFF" stroke-width="2.4" stroke-linecap="square"/>
  <line x1="200.211" y1="584.725" x2="213.208" y2="549.017" stroke="#FFFFFF" stroke-width="2.4" stroke-linecap="square"/>
  <line x1="190.435" y1="580.972" x2="204.670" y2="545.739" stroke="#FFFFFF" stroke-width="2.4" stroke-linecap="square"/>
  <line x1="180.796" y1="576.881" x2="196.252" y2="542.166" stroke="#FFFFFF" stroke-width="2.4" stroke-linecap="square"/>
  <line x1="171.306" y1="572.455" x2="187.964" y2="538.301" stroke="#FFFFFF" stroke-width="2.4" stroke-linecap="square"/>
  <line x1="161.976" y1="567.702" x2="179.816" y2="534.150" stroke="#FFFFFF" stroke-width="2.4" stroke-linecap="square"/>
  <line x1="153.717" y1="561.066" x2="170.917" y2="531.275" stroke="#FFFFFF" stroke-width="6.0" stroke-linecap="square"/>
  <line x1="143.841" y1="557.232" x2="163.978" y2="525.006" stroke="#FFFFFF" stroke-width="2.4" stroke-linecap="square"/>
  <line x1="135.059" y1="551.529" x2="156.309" y2="520.025" stroke="#FFFFFF" stroke-width="2.4" stroke-linecap="square"/>
  <line x1="126.482" y1="545.522" x2="148.818" y2="514.780" stroke="#FFFFFF" stroke-width="2.4" stroke-linecap="square"/>
  <line x1="118.119" y1="539.220" x2="141.514" y2="509.276" stroke="#FFFFFF" stroke-width="2.4" stroke-linecap="square"/>
  <line x1="109.981" y1="532.631" x2="134.407" y2="503.521" stroke="#FFFFFF" stroke-width="2.4" stroke-linecap="square"/>
  <line x1="102.078" y1="525.761" x2="127.505" y2="497.521" stroke="#FFFFFF" stroke-width="2.4" stroke-linecap="square"/>
  <line x1="94.420" y1="518.619" x2="120.817" y2="491.284" stroke="#FFFFFF" stroke-width="2.4" stroke-linecap="square"/>
  <line x1="87.015" y1="511.215" x2="114.350" y2="484.818" stroke="#FFFFFF" stroke-width="2.4" stroke-linecap="square"/>
  <line x1="79.874" y1="503.556" x2="108.113" y2="478.129" stroke="#FFFFFF" stroke-width="2.4" stroke-linecap="square"/>
  <line x1="73.004" y1="495.654" x2="102.114" y2="471.228" stroke="#FFFFFF" stroke-width="2.4" stroke-linecap="square"/>
  <line x1="66.414" y1="487.516" x2="96.358" y2="464.121" stroke="#FFFFFF" stroke-width="2.4" stroke-linecap="square"/>
  <line x1="60.112" y1="479.153" x2="90.855" y2="456.817" stroke="#FFFFFF" stroke-width="2.4" stroke-linecap="square"/>
  <line x1="54.106" y1="470.575" x2="85.609" y2="449.326" stroke="#FFFFFF" stroke-width="2.4" stroke-linecap="square"/>
  <line x1="48.403" y1="461.793" x2="80.629" y2="441.656" stroke="#FFFFFF" stroke-width="2.4" stroke-linecap="square"/>
  <line x1="44.568" y1="451.917" x2="74.360" y2="434.717" stroke="#FFFFFF" stroke-width="6.0" stroke-linecap="square"/>
  <line x1="37.933" y1="443.659" x2="71.485" y2="425.819" stroke="#FFFFFF" stroke-width="2.4" stroke-linecap="square"/>
  <line x1="33.179" y1="434.329" x2="67.333" y2="417.670" stroke="#FFFFFF" stroke-width="2.4" stroke-linecap="square"/>
  <line x1="28.754" y1="424.838" x2="63.468" y2="409.382" stroke="#FFFFFF" stroke-width="2.4" stroke-linecap="square"/>
  <line x1="24.662" y1="415.199" x2="59.895" y2="400.964" stroke="#FFFFFF" stroke-width="2.4" stroke-linecap="square"/>
  <line x1="20.909" y1="405.423" x2="56.618" y2="392.427" stroke="#FFFFFF" stroke-width="2.4" stroke-linecap="square"/>
  <line x1="17.500" y1="395.522" x2="53.640" y2="383.780" stroke="#FFFFFF" stroke-width="2.4" stroke-linecap="square"/>
  <line x1="14.439" y1="385.508" x2="50.967" y2="375.034" stroke="#FFFFFF" stroke-width="2.4" stroke-linecap="square"/>
  <line x1="11.729" y1="375.394" x2="48.600" y2="366.201" stroke="#FFFFFF" stroke-width="2.4" stroke-linecap="square"/>
  <line x1="9.373" y1="365.191" x2="46.543" y2="357.290" stroke="#FFFFFF" stroke-width="2.4" stroke-linecap="square"/>
  <line x1="7.375" y1="354.912" x2="44.798" y2="348.313" stroke="#FFFFFF" stroke-width="2.4" stroke-linecap="square"/>
  <line x1="5.737" y1="344.569" x2="43.367" y2="339.281" stroke="#FFFFFF" stroke-width="2.4" stroke-linecap="square"/>
  <line x1="4.461" y1="334.176" x2="42.253" y2="330.204" stroke="#FFFFFF" stroke-width="2.4" stroke-linecap="square"/>
  <line x1="3.548" y1="323.744" x2="41.455" y2="321.093" stroke="#FFFFFF" stroke-width="2.4" stroke-linecap="square"/>
  <line x1="3.000" y1="313.287" x2="40.977" y2="311.961" stroke="#FFFFFF" stroke-width="2.4" stroke-linecap="square"/>
  <line x1="4.617" y1="302.817" x2="39.017" y2="302.817" stroke="#FFFFFF" stroke-width="6.0" stroke-linecap="square"/>
  <line x1="3.000" y1="292.347" x2="40.977" y2="293.674" stroke="#FFFFFF" stroke-width="2.4" stroke-linecap="square"/>
  <line x1="3.548" y1="281.890" x2="41.455" y2="284.541" stroke="#FFFFFF" stroke-width="2.4" stroke-linecap="square"/>
  <line x1="4.461" y1="271.459" x2="42.253" y2="275.431" stroke="#FFFFFF" stroke-width="2.4" stroke-linecap="square"/>
  <line x1="5.737" y1="261.065" x2="43.367" y2="266.354" stroke="#FFFFFF" stroke-width="2.4" stroke-linecap="square"/>
  <line x1="7.375" y1="250.723" x2="44.798" y2="257.321" stroke="#FFFFFF" stroke-width="2.4" stroke-linecap="square"/>
  <line x1="9.373" y1="240.444" x2="46.543" y2="248.344" stroke="#FFFFFF" stroke-width="2.4" stroke-linecap="square"/>
  <line x1="11.729" y1="230.241" x2="48.600" y2="239.434" stroke="#FFFFFF" stroke-width="2.4" stroke-linecap="square"/>
  <line x1="14.439" y1="220.126" x2="50.967" y2="230.600" stroke="#FFFFFF" stroke-width="2.4" stroke-linecap="square"/>
  <line x1="17.500" y1="210.112" x2="53.640" y2="221.855" stroke="#FFFFFF" stroke-width="2.4" stroke-linecap="square"/>
  <line x1="20.909" y1="200.211" x2="56.618" y2="213.208" stroke="#FFFFFF" stroke-width="2.4" stroke-linecap="square"/>
  <line x1="24.662" y1="190.435" x2="59.895" y2="204.670" stroke="#FFFFFF" stroke-width="2.4" stroke-linecap="square"/>
  <line x1="28.754" y1="180.796" x2="63.468" y2="196.252" stroke="#FFFFFF" stroke-width="2.4" stroke-linecap="square"/>
  <line x1="33.179" y1="171.306" x2="67.333" y2="187.964" stroke="#FFFFFF" stroke-width="2.4" stroke-linecap="square"/>
  <line x1="37.933" y1="161.976" x2="71.485" y2="179.816" stroke="#FFFFFF" stroke-width="2.4" stroke-linecap="square"/>
  <line x1="44.568" y1="153.717" x2="74.360" y2="170.917" stroke="#FFFFFF" stroke-width="6.0" stroke-linecap="square"/>
  <line x1="48.403" y1="143.841" x2="80.629" y2="163.978" stroke="#FFFFFF" stroke-width="2.4" stroke-linecap="square"/>
  <line x1="54.106" y1="135.059" x2="85.609" y2="156.309" stroke="#FFFFFF" stroke-width="2.4" stroke-linecap="square"/>
  <line x1="60.112" y1="126.482" x2="90.855" y2="148.818" stroke="#FFFFFF" stroke-width="2.4" stroke-linecap="square"/>
  <line x1="66.414" y1="118.119" x2="96.358" y2="141.514" stroke="#FFFFFF" stroke-width="2.4" stroke-linecap="square"/>
  <line x1="73.004" y1="109.981" x2="102.114" y2="134.407" stroke="#FFFFFF" stroke-width="2.4" stroke-linecap="square"/>
  <line x1="79.874" y1="102.078" x2="108.113" y2="127.505" stroke="#FFFFFF" stroke-width="2.4" stroke-linecap="square"/>
  <line x1="87.015" y1="94.420" x2="114.350" y2="120.817" stroke="#FFFFFF" stroke-width="2.4" stroke-linecap="square"/>
  <line x1="94.420" y1="87.015" x2="120.817" y2="114.350" stroke="#FFFFFF" stroke-width="2.4" stroke-linecap="square"/>
  <line x1="102.078" y1="79.874" x2="127.505" y2="108.113" stroke="#FFFFFF" stroke-width="2.4" stroke-linecap="square"/>
  <line x1="109.981" y1="73.004" x2="134.407" y2="102.114" stroke="#FFFFFF" stroke-width="2.4" stroke-linecap="square"/>
  <line x1="118.119" y1="66.414" x2="141.514" y2="96.358" stroke="#FFFFFF" stroke-width="2.4" stroke-linecap="square"/>
  <line x1="126.482" y1="60.112" x2="148.818" y2="90.855" stroke="#FFFFFF" stroke-width="2.4" stroke-linecap="square"/>
  <line x1="135.059" y1="54.106" x2="156.309" y2="85.609" stroke="#FFFFFF" stroke-width="2.4" stroke-linecap="square"/>
  <line x1="143.841" y1="48.403" x2="163.978" y2="80.629" stroke="#FFFFFF" stroke-width="2.4" stroke-linecap="square"/>
  <line x1="153.717" y1="44.568" x2="170.917" y2="74.360" stroke="#FFFFFF" stroke-width="6.0" stroke-linecap="square"/>
  <line x1="161.976" y1="37.933" x2="179.816" y2="71.485" stroke="#FFFFFF" stroke-width="2.4" stroke-linecap="square"/>
  <line x1="171.306" y1="33.179" x2="187.964" y2="67.333" stroke="#FFFFFF" stroke-width="2.4" stroke-linecap="square"/>
  <line x1="180.796" y1="28.754" x2="196.252" y2="63.468" stroke="#FFFFFF" stroke-width="2.4" stroke-linecap="square"/>
  <line x1="190.435" y1="24.662" x2="204.670" y2="59.895" stroke="#FFFFFF" stroke-width="2.4" stroke-linecap="square"/>
  <line x1="200.211" y1="20.909" x2="213.208" y2="56.618" stroke="#FFFFFF" stroke-width="2.4" stroke-linecap="square"/>
  <line x1="210.112" y1="17.500" x2="221.855" y2="53.640" stroke="#FFFFFF" stroke-width="2.4" stroke-linecap="square"/>
  <line x1="220.126" y1="14.439" x2="230.600" y2="50.967" stroke="#FFFFFF" stroke-width="2.4" stroke-linecap="square"/>
  <line x1="230.241" y1="11.729" x2="239.434" y2="48.600" stroke="#FFFFFF" stroke-width="2.4" stroke-linecap="square"/>
  <line x1="240.444" y1="9.373" x2="248.344" y2="46.543" stroke="#FFFFFF" stroke-width="2.4" stroke-linecap="square"/>
  <line x1="250.723" y1="7.375" x2="257.321" y2="44.798" stroke="#FFFFFF" stroke-width="2.4" stroke-linecap="square"/>
  <line x1="261.065" y1="5.737" x2="266.354" y2="43.367" stroke="#FFFFFF" stroke-width="2.4" stroke-linecap="square"/>
  <line x1="271.459" y1="4.461" x2="275.431" y2="42.253" stroke="#FFFFFF" stroke-width="2.4" stroke-linecap="square"/>
  <line x1="281.890" y1="3.548" x2="284.541" y2="41.455" stroke="#FFFFFF" stroke-width="2.4" stroke-linecap="square"/>
  <line x1="292.347" y1="3.000" x2="293.674" y2="40.977" stroke="#FFFFFF" stroke-width="2.4" stroke-linecap="square"/>
</svg>